<mxfile host="app.diagrams.net" modified="2022-04-03T23:29:42.475Z" agent="5.0 (Macintosh; Intel Mac OS X 10_15_7) AppleWebKit/537.36 (KHTML, like Gecko) Chrome/99.0.4844.84 Safari/537.36" etag="sR9Vexh6wUgUYireCzp0" version="17.4.0" type="github">
  <diagram id="oJo2FGNUgsGGbzG4stuL" name="Page-1">
    <mxGraphModel dx="1426" dy="648" grid="1" gridSize="10" guides="1" tooltips="1" connect="1" arrows="1" fold="1" page="1" pageScale="1" pageWidth="850" pageHeight="1100" math="0" shadow="0">
      <root>
        <mxCell id="0" />
        <mxCell id="1" parent="0" />
        <mxCell id="gEmM8FZAyyN7xgSGTA_p-1" value="" style="whiteSpace=wrap;html=1;aspect=fixed;fillColor=#66B2FF;" vertex="1" parent="1">
          <mxGeometry x="10" y="330" width="270" height="270" as="geometry" />
        </mxCell>
        <mxCell id="gEmM8FZAyyN7xgSGTA_p-2" value="&lt;span&gt;Account A : 10 ETH&lt;/span&gt;&lt;br&gt;&lt;span&gt;Account B : 5 ETH&lt;/span&gt;" style="rounded=0;whiteSpace=wrap;html=1;fontFamily=Fira Code;fontSource=https%3A%2F%2Ffonts.googleapis.com%2Fcss%3Ffamily%3DFira%2BCode;fillColor=#66B2FF;" vertex="1" parent="1">
          <mxGeometry x="10" y="330" width="270" height="60" as="geometry" />
        </mxCell>
        <mxCell id="gEmM8FZAyyN7xgSGTA_p-3" value="&lt;span&gt;Smart Contract NFT CAT&lt;br&gt;&amp;nbsp; Owner&amp;nbsp; &amp;nbsp;: Account G&lt;br&gt;&lt;/span&gt;&lt;span&gt;&lt;/span&gt;Balance : 100 ETH&lt;br&gt;&lt;br&gt;&lt;span&gt;CAT Token 1 : Owned by Account C&lt;/span&gt;&lt;br&gt;&lt;span&gt;CAT Token 2 : Owned by Account D&lt;/span&gt;" style="rounded=0;whiteSpace=wrap;html=1;fontFamily=Fira Code;fontSource=https%3A%2F%2Ffonts.googleapis.com%2Fcss%3Ffamily%3DFira%2BCode;fillColor=#66B2FF;" vertex="1" parent="1">
          <mxGeometry x="10" y="390" width="270" height="110" as="geometry" />
        </mxCell>
        <mxCell id="gEmM8FZAyyN7xgSGTA_p-4" value="State at time t" style="text;html=1;strokeColor=none;fillColor=none;align=center;verticalAlign=middle;whiteSpace=wrap;rounded=0;fontFamily=Fira Code;fontSource=https%3A%2F%2Ffonts.googleapis.com%2Fcss%3Ffamily%3DFira%2BCode;" vertex="1" parent="1">
          <mxGeometry x="150" y="300" width="130" height="30" as="geometry" />
        </mxCell>
        <mxCell id="gEmM8FZAyyN7xgSGTA_p-5" value=".&lt;br&gt;.&lt;br&gt;." style="rounded=0;whiteSpace=wrap;html=1;fontFamily=Fira Code;fontSource=https%3A%2F%2Ffonts.googleapis.com%2Fcss%3Ffamily%3DFira%2BCode;fillColor=#66B2FF;" vertex="1" parent="1">
          <mxGeometry x="10" y="500" width="270" height="100" as="geometry" />
        </mxCell>
        <mxCell id="gEmM8FZAyyN7xgSGTA_p-6" value="" style="whiteSpace=wrap;html=1;aspect=fixed;fillColor=#66B2FF;" vertex="1" parent="1">
          <mxGeometry x="550" y="270" width="270" height="270" as="geometry" />
        </mxCell>
        <mxCell id="gEmM8FZAyyN7xgSGTA_p-7" value="&lt;span&gt;Account A : 10 ETH&lt;/span&gt;&lt;br&gt;&lt;span&gt;Account B : 5 ETH&lt;/span&gt;" style="rounded=0;whiteSpace=wrap;html=1;fontFamily=Fira Code;fontSource=https%3A%2F%2Ffonts.googleapis.com%2Fcss%3Ffamily%3DFira%2BCode;fillColor=#66B2FF;" vertex="1" parent="1">
          <mxGeometry x="550" y="270" width="270" height="60" as="geometry" />
        </mxCell>
        <mxCell id="gEmM8FZAyyN7xgSGTA_p-8" value="&lt;span&gt;Smart Contract NFT CAT&lt;br&gt;&amp;nbsp; Owner&amp;nbsp; &amp;nbsp;: Account G&lt;br&gt;&lt;/span&gt;&lt;span&gt;&lt;/span&gt;Balance : 100 ETH&lt;br&gt;&lt;br&gt;&lt;span&gt;CAT Token 1 : Owned by Account C&lt;/span&gt;&lt;br&gt;&lt;span&gt;CAT Token 2 : Owned by Account D&lt;/span&gt;" style="rounded=0;whiteSpace=wrap;html=1;fontFamily=Fira Code;fontSource=https%3A%2F%2Ffonts.googleapis.com%2Fcss%3Ffamily%3DFira%2BCode;fillColor=#66B2FF;" vertex="1" parent="1">
          <mxGeometry x="550" y="330" width="270" height="110" as="geometry" />
        </mxCell>
        <mxCell id="gEmM8FZAyyN7xgSGTA_p-9" value=".&lt;br&gt;.&lt;br&gt;." style="rounded=0;whiteSpace=wrap;html=1;fontFamily=Fira Code;fontSource=https%3A%2F%2Ffonts.googleapis.com%2Fcss%3Ffamily%3DFira%2BCode;fillColor=#66B2FF;" vertex="1" parent="1">
          <mxGeometry x="550" y="550" width="270" height="95" as="geometry" />
        </mxCell>
        <mxCell id="gEmM8FZAyyN7xgSGTA_p-10" value="&lt;span&gt;Smart Contract NFT DOG&lt;br&gt;&amp;nbsp; &amp;nbsp; Owner&amp;nbsp; &amp;nbsp;: Account F&lt;br&gt;&lt;/span&gt;&lt;span&gt;&lt;/span&gt;Balance : 0 ETH&lt;br&gt;&lt;br&gt;Tokens : None" style="rounded=0;whiteSpace=wrap;html=1;fontFamily=Fira Code;fontSource=https%3A%2F%2Ffonts.googleapis.com%2Fcss%3Ffamily%3DFira%2BCode;fillColor=#66B2FF;strokeWidth=5;" vertex="1" parent="1">
          <mxGeometry x="550" y="440" width="270" height="110" as="geometry" />
        </mxCell>
        <mxCell id="gEmM8FZAyyN7xgSGTA_p-11" value="State at time t+1" style="text;html=1;strokeColor=none;fillColor=none;align=center;verticalAlign=middle;whiteSpace=wrap;rounded=0;fontFamily=Fira Code;fontSource=https%3A%2F%2Ffonts.googleapis.com%2Fcss%3Ffamily%3DFira%2BCode;" vertex="1" parent="1">
          <mxGeometry x="690" y="240" width="130" height="30" as="geometry" />
        </mxCell>
        <mxCell id="gEmM8FZAyyN7xgSGTA_p-12" value="" style="endArrow=classic;html=1;rounded=0;" edge="1" parent="1">
          <mxGeometry width="50" height="50" relative="1" as="geometry">
            <mxPoint x="300" y="450" as="sourcePoint" />
            <mxPoint x="510" y="450" as="targetPoint" />
          </mxGeometry>
        </mxCell>
        <mxCell id="gEmM8FZAyyN7xgSGTA_p-13" value="From : Account F&lt;br&gt;&lt;div&gt;&lt;span&gt;&amp;nbsp; To : None&lt;/span&gt;&lt;/div&gt;&lt;div&gt;&lt;span&gt;&amp;nbsp;Gas :&lt;br&gt;Code : 0X608060405543672343234&lt;/span&gt;&lt;/div&gt;608060405232423C232...." style="rounded=0;whiteSpace=wrap;html=1;fontFamily=Fira Code;fontSource=https%3A%2F%2Ffonts.googleapis.com%2Fcss%3Ffamily%3DFira%2BCode;fillColor=#CCE5FF;align=left;" vertex="1" parent="1">
          <mxGeometry x="340" y="260" width="170" height="120" as="geometry" />
        </mxCell>
        <mxCell id="gEmM8FZAyyN7xgSGTA_p-14" value="Transaction" style="text;html=1;strokeColor=none;fillColor=none;align=center;verticalAlign=middle;whiteSpace=wrap;rounded=0;fontFamily=Fira Code;fontSource=https%3A%2F%2Ffonts.googleapis.com%2Fcss%3Ffamily%3DFira%2BCode;" vertex="1" parent="1">
          <mxGeometry x="400" y="230" width="130" height="30" as="geometry" />
        </mxCell>
      </root>
    </mxGraphModel>
  </diagram>
</mxfile>
